<!-- http://thenounproject.com/term/flow-chart/50374/ -->
<svg xmlns="http://www.w3.org/2000/svg" xmlns:xlink="http://www.w3.org/1999/xlink" version="1.0" id="Layer_1" x="0px" y="0px" width="26px" height="26px" viewBox="0 0 26 26" style="enable-background:new 0 0 26 26;" xml:space="preserve">
<path d="M18,8h7c0.551,0,1-0.449,1-1V1c0-0.551-0.449-1-1-1h-7c-0.551,0-1,0.449-1,1v1.549l-8,9.018V9c0-0.551-0.449-1-1-1H1  C0.449,8,0,8.449,0,9v8c0,0.551,0.449,1,1,1h7c0.551,0,1-0.449,1-1v-2.506l8,8.89V25c0,0.551,0.449,1,1,1h7c0.551,0,1-0.449,1-1v-6  c0-0.551-0.449-1-1-1h-7c-0.551,0-1,0.449-1,1v1.394l-6.626-7.363L17,5.562V7C17,7.551,17.449,8,18,8z"/>
<style>
path {
fill: #C15B1F;
}
</style>
</svg>
