<!-- http://thenounproject.com/term/plus/2876/ -->
<svg xmlns="http://www.w3.org/2000/svg" xmlns:xlink="http://www.w3.org/1999/xlink" version="1.1" id="Your_Icon" x="0px" y="0px" width="100px" height="100px" viewBox="0 0 100 100" enable-background="new 0 0 100 100" xml:space="preserve">
<path d="M95,48.105v3.797c0,6.275-5.093,11.367-11.375,11.367H63.273v20.355C63.273,89.907,58.178,95,51.895,95h-3.793  c-6.283,0-11.375-5.093-11.375-11.375V63.27H16.375C10.092,63.27,5,58.178,5,51.902v-3.797c0-6.283,5.092-11.375,11.375-11.375  h20.352V16.375C36.727,10.092,41.819,5,48.102,5h3.793c6.283,0,11.379,5.092,11.379,11.375V36.73h20.352  C89.907,36.73,95,41.823,95,48.105z"/>
<style>
path {
fill: #472768;
}
</style>
</svg>
